<svg width="188" height="200" viewBox="0 0 188 200" fill="none" xmlns="http://www.w3.org/2000/svg">
<path d="M14.2984 133.69C13.4213 85.0458 14.4009 111.543 9.20174 4.30835L1.09363 4.82231C0.455724 4.86325 -0.0317599 5.44948 0.00161645 6.13477L4.31845 95.175C5.17589 142.737 5.41046 121.894 2.74036 193.749C2.71826 194.346 3.09292 194.876 3.63447 195.013C7.59967 196.022 9.2478 196.248 12.0373 196.248C11.9499 195.927 11.8535 199.473 14.2984 133.69Z" fill="white"/>
<path d="M77.522 164.106C77.522 164.106 82.2633 162.352 78.3658 157.753C62.457 138.677 52.7656 131.767 43.5542 120.902C39.7047 116.422 34.168 122.284 34.168 122.284C70.1684 156.686 62.9562 151.706 69.302 158.294C70.1444 159.168 70.8091 159.858 71.7032 161.357C71.5368 161.423 70.8011 161.623 69.7829 161.899C54.8049 165.963 52.5579 168.721 45.8699 170.262C52.1113 175.732 63.117 169.058 70.9633 166.154C72.8394 165.46 75.3248 164.723 77.522 164.106Z" fill="white"/>
<path d="M172.646 118.993L41.8699 29.3335C37.4887 26.3301 32.7638 27.7755 29.0449 31.7457L165.836 129.121C164.706 132.604 164.254 136.6 163.575 139.919C161.172 151.64 158.081 156.769 153.249 167.905C153.249 167.905 165.637 170.466 169.415 161.452C178.277 141.175 176.231 137.35 178.343 130.947C178.092 127.336 178.559 123.047 172.646 118.993Z" fill="white"/>
<path d="M151.007 47.8402C151.001 47.8711 150.996 47.9029 150.992 47.9342L148.053 72.6591C148.053 72.6591 159.681 80.3802 161.142 67.6852C161.143 67.6812 161.143 67.6771 161.144 67.6731L163.549 46.7714C163.553 46.7395 163.558 46.7072 163.565 46.6754C163.656 46.1963 163.745 45.791 163.821 45.4387C164.22 43.6032 164.304 43.2216 163.034 41.5074C161.699 39.7083 155.717 34.9598 151.26 31.8806C147.053 28.8483 142.057 32.4946 142.057 32.4946C140.81 33.522 139.695 34.4196 138.487 34.8314C141.542 36.6078 149.283 41.1617 150.488 42.785C151.731 44.4618 151.649 44.8348 151.258 46.6304C151.183 46.9755 151.097 47.3723 151.007 47.8402Z" fill="white"/>
<path d="M187.037 46.4464C186.305 9.22313 186.259 17.2692 186.973 5.66783C187.015 4.98002 186.532 4.3857 185.892 4.3387C134.334 0.547391 132.381 0.110243 128.385 0.110243C58.0501 0.104178 94.9761 -1.13146 1.09364 4.82234C0.455724 4.86328 -0.0317599 5.44951 0.00161645 6.1348C6.05214 130.933 5.8312 110.574 2.74036 193.749C2.71826 194.346 3.09292 194.876 3.63447 195.013C10.6609 196.799 9.41563 196.096 25.8062 196.109C25.833 196.118 56.5223 192.515 56.5501 192.512C56.6949 192.538 98.9883 200 99.1355 200C99.1679 200 99.1999 199.998 99.2323 199.995C148.799 195.53 134.592 196.609 166.569 194.704L185.346 198.787C186.077 198.944 186.747 198.337 186.739 197.548C186.332 156.907 187.037 46.4464 187.037 46.4464ZM110.817 43.4839C110.957 43.4475 111.157 43.3949 111.406 43.3237L124.77 40.0858C131.616 38.2417 132.628 37.7924 138.486 34.8314C141.191 35.8401 148.608 40.252 150.488 42.785C151.73 44.4618 151.648 44.8348 151.258 46.6303C151.182 46.975 151.096 47.3717 151.006 47.8402C151 47.871 150.995 47.9029 150.991 47.9342L148.052 72.6591C145.144 72.7743 144.902 72.5348 144.097 71.7388C143.765 71.4093 143.352 70.9999 142.623 70.4749C138.201 67.2839 123.729 55.772 119.159 51.8094L110.176 44.0499L110.248 43.9746C110.346 43.8705 110.432 43.7305 110.49 43.5966C110.535 43.5587 110.712 43.5117 110.817 43.4839ZM131.644 167.972C131.381 167.69 19.3378 39.9948 19.2555 39.8184L29.0442 31.7456L165.836 129.121C164.705 132.604 164.254 136.6 163.574 139.919C161.171 151.64 158.08 156.769 153.248 167.905C146.331 168.201 132.12 168.144 131.644 167.972ZM29.7211 133.425C30.9805 130.171 32.7118 124.936 34.1672 122.284C41.322 127.091 69.2716 157.281 71.7025 161.358C70.3561 161.895 64.5731 162.819 54.9649 166.945C48.8773 169.556 43.129 172.033 37.5768 170.007C37.023 169.806 35.547 168.46 33.3582 166.429C29.3606 162.719 25.7404 160.046 23.6354 158.71C20.0448 156.431 20.6042 156.912 29.7211 133.425Z" fill="white"/>
</svg>
