<svg width="477" height="200" viewBox="0 0 477 200" fill="none" xmlns="http://www.w3.org/2000/svg">
<path d="M162.76 132.66C161.916 85.846 162.859 111.347 157.856 8.14624L150.052 8.64087C149.439 8.68026 148.969 9.24444 149.002 9.90394L153.156 95.5941C153.981 141.367 154.207 121.308 151.637 190.459C151.616 191.034 151.977 191.544 152.498 191.676C156.314 192.647 157.9 192.864 160.584 192.864C160.5 192.555 160.408 195.968 162.76 132.66Z" fill="white"/>
<path d="M223.606 161.932C223.606 161.932 228.169 160.243 224.418 155.818C209.108 137.46 199.781 130.809 190.916 120.354C187.211 116.042 181.883 121.683 181.883 121.683C216.529 154.791 209.588 149.999 215.695 156.338C216.506 157.179 217.145 157.844 218.006 159.286C217.846 159.35 217.138 159.542 216.158 159.808C201.743 163.718 199.581 166.373 193.144 167.856C199.151 173.121 209.743 166.697 217.294 163.902C219.099 163.234 221.491 162.526 223.606 161.932Z" fill="white"/>
<path d="M315.151 118.516L189.295 32.2297C185.078 29.3393 180.531 30.7303 176.952 34.5511L308.597 128.263C307.509 131.615 307.075 135.461 306.42 138.655C304.108 149.935 301.134 154.871 296.483 165.588C296.483 165.588 308.405 168.052 312.041 159.378C320.57 139.863 318.6 136.182 320.633 130.02C320.391 126.545 320.841 122.418 315.151 118.516Z" fill="white"/>
<path d="M294.325 50.0404C294.319 50.0701 294.315 50.1007 294.311 50.1309L291.482 73.9255C291.482 73.9255 302.673 81.3561 304.079 69.1387C304.079 69.1348 304.08 69.131 304.08 69.1271L306.395 49.0117C306.399 48.9811 306.404 48.95 306.41 48.9193C306.498 48.4583 306.584 48.0682 306.657 47.7292C307.041 45.9628 307.122 45.5956 305.899 43.9458C304.615 42.2144 298.857 37.6446 294.568 34.6812C290.52 31.763 285.711 35.2721 285.711 35.2721C284.511 36.2609 283.439 37.1246 282.276 37.521C285.217 39.2306 292.666 43.6132 293.826 45.1753C295.021 46.7891 294.943 47.148 294.567 48.876C294.494 49.2082 294.412 49.59 294.325 50.0404Z" fill="white"/>
<path d="M329 48.6989C328.296 12.8761 328.252 20.6194 328.938 9.45459C328.979 8.79265 328.514 8.22069 327.898 8.17546C278.28 4.5268 276.4 4.10609 272.555 4.10609C204.866 4.10026 240.403 2.91111 150.052 8.64091C149.439 8.6803 148.969 9.24448 149.002 9.90398C154.824 130.006 154.612 110.414 151.637 190.459C151.616 191.034 151.977 191.544 152.498 191.676C159.26 193.395 158.061 192.719 173.835 192.731C173.861 192.739 203.396 189.272 203.422 189.269C203.562 189.294 244.264 196.475 244.406 196.475C244.437 196.475 244.468 196.474 244.499 196.471C292.201 192.173 278.528 193.212 309.302 191.378L327.373 195.308C328.076 195.459 328.72 194.875 328.713 194.116C328.321 155.004 329 48.6989 329 48.6989ZM255.648 45.8479C255.782 45.8128 255.974 45.7623 256.214 45.6937L269.076 42.5776C275.664 40.8029 276.638 40.3705 282.276 37.5209C284.879 38.4917 292.017 42.7376 293.826 45.1752C295.021 46.789 294.943 47.1479 294.567 48.8759C294.494 49.2076 294.412 49.5894 294.325 50.0403C294.319 50.07 294.314 50.1006 294.31 50.1307L291.482 73.9254C288.683 74.0363 288.45 73.8057 287.676 73.0397C287.356 72.7226 286.959 72.3287 286.257 71.8233C282.002 68.7525 268.074 57.6737 263.676 53.8601L255.031 46.3926L255.1 46.3201C255.194 46.2199 255.277 46.0852 255.333 45.9563C255.376 45.9198 255.547 45.8746 255.648 45.8479ZM275.691 165.653C275.438 165.381 167.61 42.49 167.531 42.3203L176.951 34.5512L308.596 128.263C307.508 131.615 307.074 135.461 306.42 138.655C304.107 149.935 301.133 154.871 296.482 165.588C289.826 165.873 276.149 165.818 275.691 165.653ZM177.603 132.405C178.815 129.273 180.481 124.235 181.882 121.683C188.767 126.309 215.665 155.364 218.005 159.287C216.709 159.804 211.144 160.693 201.897 164.664C196.038 167.176 190.506 169.56 185.163 167.611C184.63 167.418 183.21 166.122 181.103 164.167C177.256 160.597 173.772 158.024 171.746 156.739C168.291 154.546 168.829 155.008 177.603 132.405Z" fill="white"/>
</svg>
